<?xml version="1.0" standalone="no"?>
<!DOCTYPE svg PUBLIC "-//W3C//DTD SVG 20010904//EN"
 "http://www.w3.org/TR/2001/REC-SVG-20010904/DTD/svg10.dtd">
<svg version="1.0" xmlns="http://www.w3.org/2000/svg"
 width="460.000000pt" height="460.000000pt" viewBox="0 0 460.000000 460.000000"
 preserveAspectRatio="xMidYMid meet">
<metadata>
Created by potrace 1.14, written by Peter Selinger 2001-2017
</metadata>
<g transform="translate(0.000000,460.000000) scale(0.100000,-0.100000)"
fill="#000000" stroke="none">
<path d="M2070 3943 c47 -85 68 -167 68 -267 0 -47 -4 -101 -8 -119 -5 -17
-11 -43 -14 -57 -12 -68 -143 -349 -167 -358 -5 -2 -9 -8 -9 -14 0 -13 -90
-152 -101 -156 -5 -2 -9 -10 -9 -18 0 -8 -9 -14 -20 -14 -13 0 -20 7 -20 20 0
11 -3 20 -8 20 -9 0 -48 109 -65 185 -22 100 -10 212 34 297 23 46 22 45 -101
-27 -210 -123 -330 -327 -331 -560 0 -142 31 -280 93 -414 37 -82 38 -84 22
-115 -149 -285 -182 -403 -178 -637 1 -87 8 -142 29 -227 16 -61 32 -112 37
-112 4 0 8 -8 8 -17 1 -24 56 -135 105 -208 39 -60 203 -235 221 -235 5 -1 25
-14 44 -30 19 -17 40 -30 46 -30 7 0 14 -4 16 -8 10 -26 182 -97 286 -118 136
-28 249 -18 382 34 36 14 67 29 70 32 3 4 19 14 36 23 33 17 184 162 184 177
0 5 6 15 13 22 22 22 69 130 87 200 21 80 21 288 0 358 -8 25 -14 47 -15 50
-10 43 -114 260 -124 260 -3 0 -12 13 -18 28 -17 38 -78 105 -275 303 -140
141 -168 174 -168 198 0 16 3 31 8 33 10 4 133 255 175 358 39 96 83 222 91
260 3 14 9 40 15 59 17 56 26 141 26 251 0 121 -6 164 -35 239 -64 166 -167
268 -363 361 -97 45 -105 42 -67 -27z m-62 -2276 c68 -89 128 -191 163 -278
35 -87 41 -115 26 -127 -26 -20 -154 -43 -231 -42 -160 2 -160 2 -157 142 1
57 4 117 6 133 10 71 31 180 35 180 1 0 3 8 5 18 2 10 12 38 22 62 l18 44 31
-32 c17 -18 54 -62 82 -100z"/>
<path d="M2839 3167 c-30 -13 -71 -35 -90 -50 -37 -28 -89 -82 -89 -93 0 -3
-9 -18 -19 -33 -40 -56 -64 -158 -65 -280 -1 -64 1 -134 5 -156 4 -22 10 -53
12 -70 21 -119 89 -287 190 -470 64 -116 88 -162 118 -230 9 -21 47 -137 55
-167 2 -10 6 -28 9 -40 20 -81 25 -230 11 -323 -32 -214 -161 -400 -353 -508
-66 -38 -65 -40 15 -22 12 3 61 23 108 45 46 21 87 39 91 39 3 -1 9 3 12 8 3
5 22 18 42 30 49 28 70 46 162 133 172 164 275 354 321 590 12 66 14 285 2
330 -4 14 -9 36 -12 50 -12 62 -39 141 -72 210 -19 41 -36 77 -37 80 -4 16
-57 110 -130 230 -145 237 -186 319 -201 395 -11 58 -11 245 -1 279 7 21 6 30
-4 37 -18 11 -16 12 -80 -14z"/>
</g>
</svg>
